<?xml version="1.0" encoding="utf-8"?>
<svg xmlns="http://www.w3.org/2000/svg" xmlns:xlink="http://www.w3.org/1999/xlink" style="margin: auto; background: rgb(249, 249, 249); display: block; shape-rendering: auto;" width="203px" height="203px" viewBox="0 0 100 100" preserveAspectRatio="xMidYMid">
<g transform="rotate(0 50 50)">
  <rect x="49.5" y="25.5" rx="0" ry="0" width="1" height="11" fill="#ee384e">
    <animate attributeName="opacity" values="1;0" keyTimes="0;1" dur="1.8867924528301885s" begin="-1.8238993710691824s" repeatCount="indefinite"></animate>
  </rect>
</g><g transform="rotate(12 50 50)">
  <rect x="49.5" y="25.5" rx="0" ry="0" width="1" height="11" fill="#ee384e">
    <animate attributeName="opacity" values="1;0" keyTimes="0;1" dur="1.8867924528301885s" begin="-1.7610062893081762s" repeatCount="indefinite"></animate>
  </rect>
</g><g transform="rotate(24 50 50)">
  <rect x="49.5" y="25.5" rx="0" ry="0" width="1" height="11" fill="#ee384e">
    <animate attributeName="opacity" values="1;0" keyTimes="0;1" dur="1.8867924528301885s" begin="-1.6981132075471699s" repeatCount="indefinite"></animate>
  </rect>
</g><g transform="rotate(36 50 50)">
  <rect x="49.5" y="25.5" rx="0" ry="0" width="1" height="11" fill="#ee384e">
    <animate attributeName="opacity" values="1;0" keyTimes="0;1" dur="1.8867924528301885s" begin="-1.6352201257861634s" repeatCount="indefinite"></animate>
  </rect>
</g><g transform="rotate(48 50 50)">
  <rect x="49.5" y="25.5" rx="0" ry="0" width="1" height="11" fill="#ee384e">
    <animate attributeName="opacity" values="1;0" keyTimes="0;1" dur="1.8867924528301885s" begin="-1.572327044025157s" repeatCount="indefinite"></animate>
  </rect>
</g><g transform="rotate(60 50 50)">
  <rect x="49.5" y="25.5" rx="0" ry="0" width="1" height="11" fill="#ee384e">
    <animate attributeName="opacity" values="1;0" keyTimes="0;1" dur="1.8867924528301885s" begin="-1.5094339622641508s" repeatCount="indefinite"></animate>
  </rect>
</g><g transform="rotate(72 50 50)">
  <rect x="49.5" y="25.5" rx="0" ry="0" width="1" height="11" fill="#ee384e">
    <animate attributeName="opacity" values="1;0" keyTimes="0;1" dur="1.8867924528301885s" begin="-1.4465408805031446s" repeatCount="indefinite"></animate>
  </rect>
</g><g transform="rotate(84 50 50)">
  <rect x="49.5" y="25.5" rx="0" ry="0" width="1" height="11" fill="#ee384e">
    <animate attributeName="opacity" values="1;0" keyTimes="0;1" dur="1.8867924528301885s" begin="-1.3836477987421383s" repeatCount="indefinite"></animate>
  </rect>
</g><g transform="rotate(96 50 50)">
  <rect x="49.5" y="25.5" rx="0" ry="0" width="1" height="11" fill="#ee384e">
    <animate attributeName="opacity" values="1;0" keyTimes="0;1" dur="1.8867924528301885s" begin="-1.320754716981132s" repeatCount="indefinite"></animate>
  </rect>
</g><g transform="rotate(108 50 50)">
  <rect x="49.5" y="25.5" rx="0" ry="0" width="1" height="11" fill="#ee384e">
    <animate attributeName="opacity" values="1;0" keyTimes="0;1" dur="1.8867924528301885s" begin="-1.2578616352201257s" repeatCount="indefinite"></animate>
  </rect>
</g><g transform="rotate(120 50 50)">
  <rect x="49.5" y="25.5" rx="0" ry="0" width="1" height="11" fill="#ee384e">
    <animate attributeName="opacity" values="1;0" keyTimes="0;1" dur="1.8867924528301885s" begin="-1.1949685534591195s" repeatCount="indefinite"></animate>
  </rect>
</g><g transform="rotate(132 50 50)">
  <rect x="49.5" y="25.5" rx="0" ry="0" width="1" height="11" fill="#ee384e">
    <animate attributeName="opacity" values="1;0" keyTimes="0;1" dur="1.8867924528301885s" begin="-1.1320754716981132s" repeatCount="indefinite"></animate>
  </rect>
</g><g transform="rotate(144 50 50)">
  <rect x="49.5" y="25.5" rx="0" ry="0" width="1" height="11" fill="#ee384e">
    <animate attributeName="opacity" values="1;0" keyTimes="0;1" dur="1.8867924528301885s" begin="-1.069182389937107s" repeatCount="indefinite"></animate>
  </rect>
</g><g transform="rotate(156 50 50)">
  <rect x="49.5" y="25.5" rx="0" ry="0" width="1" height="11" fill="#ee384e">
    <animate attributeName="opacity" values="1;0" keyTimes="0;1" dur="1.8867924528301885s" begin="-1.0062893081761006s" repeatCount="indefinite"></animate>
  </rect>
</g><g transform="rotate(168 50 50)">
  <rect x="49.5" y="25.5" rx="0" ry="0" width="1" height="11" fill="#ee384e">
    <animate attributeName="opacity" values="1;0" keyTimes="0;1" dur="1.8867924528301885s" begin="-0.9433962264150944s" repeatCount="indefinite"></animate>
  </rect>
</g><g transform="rotate(180 50 50)">
  <rect x="49.5" y="25.5" rx="0" ry="0" width="1" height="11" fill="#ee384e">
    <animate attributeName="opacity" values="1;0" keyTimes="0;1" dur="1.8867924528301885s" begin="-0.8805031446540881s" repeatCount="indefinite"></animate>
  </rect>
</g><g transform="rotate(192 50 50)">
  <rect x="49.5" y="25.5" rx="0" ry="0" width="1" height="11" fill="#ee384e">
    <animate attributeName="opacity" values="1;0" keyTimes="0;1" dur="1.8867924528301885s" begin="-0.8176100628930817s" repeatCount="indefinite"></animate>
  </rect>
</g><g transform="rotate(204 50 50)">
  <rect x="49.5" y="25.5" rx="0" ry="0" width="1" height="11" fill="#ee384e">
    <animate attributeName="opacity" values="1;0" keyTimes="0;1" dur="1.8867924528301885s" begin="-0.7547169811320754s" repeatCount="indefinite"></animate>
  </rect>
</g><g transform="rotate(216 50 50)">
  <rect x="49.5" y="25.5" rx="0" ry="0" width="1" height="11" fill="#ee384e">
    <animate attributeName="opacity" values="1;0" keyTimes="0;1" dur="1.8867924528301885s" begin="-0.6918238993710691s" repeatCount="indefinite"></animate>
  </rect>
</g><g transform="rotate(228 50 50)">
  <rect x="49.5" y="25.5" rx="0" ry="0" width="1" height="11" fill="#ee384e">
    <animate attributeName="opacity" values="1;0" keyTimes="0;1" dur="1.8867924528301885s" begin="-0.6289308176100629s" repeatCount="indefinite"></animate>
  </rect>
</g><g transform="rotate(240 50 50)">
  <rect x="49.5" y="25.5" rx="0" ry="0" width="1" height="11" fill="#ee384e">
    <animate attributeName="opacity" values="1;0" keyTimes="0;1" dur="1.8867924528301885s" begin="-0.5660377358490566s" repeatCount="indefinite"></animate>
  </rect>
</g><g transform="rotate(252 50 50)">
  <rect x="49.5" y="25.5" rx="0" ry="0" width="1" height="11" fill="#ee384e">
    <animate attributeName="opacity" values="1;0" keyTimes="0;1" dur="1.8867924528301885s" begin="-0.5031446540880503s" repeatCount="indefinite"></animate>
  </rect>
</g><g transform="rotate(264 50 50)">
  <rect x="49.5" y="25.5" rx="0" ry="0" width="1" height="11" fill="#ee384e">
    <animate attributeName="opacity" values="1;0" keyTimes="0;1" dur="1.8867924528301885s" begin="-0.44025157232704404s" repeatCount="indefinite"></animate>
  </rect>
</g><g transform="rotate(276 50 50)">
  <rect x="49.5" y="25.5" rx="0" ry="0" width="1" height="11" fill="#ee384e">
    <animate attributeName="opacity" values="1;0" keyTimes="0;1" dur="1.8867924528301885s" begin="-0.3773584905660377s" repeatCount="indefinite"></animate>
  </rect>
</g><g transform="rotate(288 50 50)">
  <rect x="49.5" y="25.5" rx="0" ry="0" width="1" height="11" fill="#ee384e">
    <animate attributeName="opacity" values="1;0" keyTimes="0;1" dur="1.8867924528301885s" begin="-0.31446540880503143s" repeatCount="indefinite"></animate>
  </rect>
</g><g transform="rotate(300 50 50)">
  <rect x="49.5" y="25.5" rx="0" ry="0" width="1" height="11" fill="#ee384e">
    <animate attributeName="opacity" values="1;0" keyTimes="0;1" dur="1.8867924528301885s" begin="-0.25157232704402516s" repeatCount="indefinite"></animate>
  </rect>
</g><g transform="rotate(312 50 50)">
  <rect x="49.5" y="25.5" rx="0" ry="0" width="1" height="11" fill="#ee384e">
    <animate attributeName="opacity" values="1;0" keyTimes="0;1" dur="1.8867924528301885s" begin="-0.18867924528301885s" repeatCount="indefinite"></animate>
  </rect>
</g><g transform="rotate(324 50 50)">
  <rect x="49.5" y="25.5" rx="0" ry="0" width="1" height="11" fill="#ee384e">
    <animate attributeName="opacity" values="1;0" keyTimes="0;1" dur="1.8867924528301885s" begin="-0.12578616352201258s" repeatCount="indefinite"></animate>
  </rect>
</g><g transform="rotate(336 50 50)">
  <rect x="49.5" y="25.5" rx="0" ry="0" width="1" height="11" fill="#ee384e">
    <animate attributeName="opacity" values="1;0" keyTimes="0;1" dur="1.8867924528301885s" begin="-0.06289308176100629s" repeatCount="indefinite"></animate>
  </rect>
</g><g transform="rotate(348 50 50)">
  <rect x="49.5" y="25.5" rx="0" ry="0" width="1" height="11" fill="#ee384e">
    <animate attributeName="opacity" values="1;0" keyTimes="0;1" dur="1.8867924528301885s" begin="0s" repeatCount="indefinite"></animate>
  </rect>
</g>
<!-- [ldio] generated by https://loading.io/ --></svg>